<svg width="100%" viewBox="0 0 680 720">
<defs><marker id="arrow" viewBox="0 0 10 10" refX="8" refY="5" markerWidth="6" markerHeight="6" orient="auto-start-reverse"><path d="M2 1L8 5L2 9" fill="none" stroke="context-stroke" stroke-width="1.5" stroke-linecap="round" stroke-linejoin="round"/></marker></defs>

<text class="th" x="340" y="30" text-anchor="middle">Stage 1 — Visitor arrives</text>

<g class="c-gray">
  <rect x="220" y="50" width="240" height="52" rx="8" stroke-width="0.5"/>
  <text class="th" x="340" y="70" text-anchor="middle" dominant-baseline="central">Visitor finds page</text>
  <text class="ts" x="340" y="87" text-anchor="middle" dominant-baseline="central">Social, Google, WhatsApp link</text>
</g>

<line x1="340" y1="102" x2="340" y2="134" class="arr" marker-end="url(#arrow)"/>

<g class="c-teal">
  <rect x="180" y="134" width="320" height="52" rx="8" stroke-width="0.5"/>
  <text class="th" x="340" y="154" text-anchor="middle" dominant-baseline="central">Your landing page</text>
  <text class="ts" x="340" y="171" text-anchor="middle" dominant-baseline="central">Testimonials, services, about</text>
</g>

<line x1="340" y1="186" x2="340" y2="218" class="arr" marker-end="url(#arrow)"/>

<g class="c-coral">
  <rect x="200" y="218" width="280" height="52" rx="8" stroke-width="0.5"/>
  <text class="th" x="340" y="238" text-anchor="middle" dominant-baseline="central">Kit signup form</text>
  <text class="ts" x="340" y="255" text-anchor="middle" dominant-baseline="central">Name + email → submit</text>
</g>

<line x1="340" y1="270" x2="340" y2="302" class="arr" marker-end="url(#arrow)"/>

<text class="th" x="340" y="300" text-anchor="middle">Stage 2 — Subscriber confirmed</text>

<g class="c-purple">
  <rect x="170" y="310" width="340" height="52" rx="8" stroke-width="0.5"/>
  <text class="th" x="340" y="330" text-anchor="middle" dominant-baseline="central">Kit sends confirmation email</text>
  <text class="ts" x="340" y="347" text-anchor="middle" dominant-baseline="central">Double opt-in (they click to confirm)</text>
</g>

<line x1="340" y1="362" x2="340" y2="394" class="arr" marker-end="url(#arrow)"/>

<g class="c-teal">
  <rect x="190" y="394" width="300" height="52" rx="8" stroke-width="0.5"/>
  <text class="th" x="340" y="414" text-anchor="middle" dominant-baseline="central">Subscriber added to list</text>
  <text class="ts" x="340" y="431" text-anchor="middle" dominant-baseline="central">Tagged, segmented in Kit</text>
</g>

<line x1="340" y1="446" x2="220" y2="478" class="arr" marker-end="url(#arrow)"/>
<line x1="340" y1="446" x2="460" y2="478" class="arr" marker-end="url(#arrow)"/>

<text class="th" x="340" y="476" text-anchor="middle">Stage 3 — Engage</text>

<g class="c-amber">
  <rect x="80" y="488" width="240" height="52" rx="8" stroke-width="0.5"/>
  <text class="th" x="200" y="508" text-anchor="middle" dominant-baseline="central">Automated sequence</text>
  <text class="ts" x="200" y="525" text-anchor="middle" dominant-baseline="central">Welcome email (auto)</text>
</g>

<g class="c-blue">
  <rect x="360" y="488" width="240" height="52" rx="8" stroke-width="0.5"/>
  <text class="th" x="480" y="508" text-anchor="middle" dominant-baseline="central">Manual broadcast</text>
  <text class="ts" x="480" y="525" text-anchor="middle" dominant-baseline="central">Weekly tips, updates</text>
</g>

<line x1="200" y1="540" x2="200" y2="572" class="arr" marker-end="url(#arrow)"/>
<line x1="480" y1="540" x2="480" y2="572" class="arr" marker-end="url(#arrow)"/>

<text class="th" x="340" y="570" text-anchor="middle">Stage 4 — Track</text>

<g class="c-green">
  <rect x="120" y="582" width="440" height="52" rx="8" stroke-width="0.5"/>
  <text class="th" x="340" y="602" text-anchor="middle" dominant-baseline="central">Kit dashboard analytics</text>
  <text class="ts" x="340" y="619" text-anchor="middle" dominant-baseline="central">New subs, opens, clicks, growth</text>
</g>

<line x1="340" y1="634" x2="340" y2="666" class="arr" marker-end="url(#arrow)"/>

<g class="c-coral">
  <rect x="160" y="666" width="360" height="44" rx="8" stroke-width="0.5"/>
  <text class="th" x="340" y="692" text-anchor="middle" dominant-baseline="central">Iterate: improve page, content, offers</text>
</g>
</svg>